<svg class="svg" xmlns="http://www.w3.org/2000/svg" xmlns:xlink="http://www.w3.org/1999/xlink" width="550px" height="30px" viewBox="0 0 550 30"><rect x="0" y="0" width="49" height="30" fill="#F4FCEF" rx="4" ry="4"></rect><text x="5" y="12" fill="gray" font-family="monospace" font-size="10">50</text><rect x="50" y="0" width="49" height="30" fill="#EAF9DF" rx="4" ry="4"></rect><text x="55" y="12" fill="gray" font-family="monospace" font-size="10">100</text><rect x="100" y="0" width="49" height="30" fill="#D5F2C0" rx="4" ry="4"></rect><text x="105" y="12" fill="gray" font-family="monospace" font-size="10">200</text><rect x="150" y="0" width="49" height="30" fill="#B4E690" rx="4" ry="4"></rect><text x="155" y="12" fill="gray" font-family="monospace" font-size="10">300</text><rect x="200" y="0" width="49" height="30" fill="#93DA61" rx="4" ry="4"></rect><text x="205" y="12" fill="gray" font-family="monospace" font-size="10">400</text><rect x="250" y="0" width="49" height="30" fill="#73CC33" rx="4" ry="4"></rect><text x="255" y="12" fill="gray" font-family="monospace" font-size="10">500</text><rect x="300" y="0" width="49" height="30" fill="#62B32D" rx="4" ry="4"></rect><text x="305" y="12" fill="gray" font-family="monospace" font-size="10">600</text><rect x="350" y="0" width="49" height="30" fill="#519926" rx="4" ry="4"></rect><text x="355" y="12" fill="gray" font-family="monospace" font-size="10">700</text><rect x="400" y="0" width="49" height="30" fill="#428020" rx="4" ry="4"></rect><text x="405" y="12" fill="gray" font-family="monospace" font-size="10">800</text><rect x="450" y="0" width="49" height="30" fill="#336619" rx="4" ry="4"></rect><text x="455" y="12" fill="gray" font-family="monospace" font-size="10">900</text><rect x="500" y="0" width="49" height="30" fill="#214712" rx="4" ry="4"></rect><text x="505" y="12" fill="gray" font-family="monospace" font-size="10">950</text></svg>